<svg xmlns="http://www.w3.org/2000/svg" xmlns:xlink="http://www.w3.org/1999/xlink" version="1.1" viewBox="1 1 30 30" enable-background="new 0 0 32 32" xml:space="preserve"><path stroke="black" stroke-width="1" d="M21.4,20c1.6-1.9,2.6-4.4,2.6-7c0-6.1-4.9-11-11-11S2,6.9,2,13s4.9,11,11,11c2.7,0,5.1-1,7-2.6l8.3,8.3  c0.2,0.2,0.5,0.3,0.7,0.3s0.5-0.1,0.7-0.3c0.4-0.4,0.4-1,0-1.4L21.4,20z M4,13c0-5,4-9,9-9s9,4,9,9s-4,9-9,9S4,18,4,13z"/><path fill="#e63946" d="M13,7c-2.8,0-5,2.2-5,5c0,3.4,3.9,6.5,4.4,6.8c0.2,0.1,0.4,0.2,0.6,0.2c0.2,0,0.4-0.1,0.6-0.2C14,18.5,18,15.4,18,12 C18,9.2,15.8,7,13,7z M13,14c-1.1,0-2-0.9-2-2s0.9-2,2-2h0c1.1,0,2,0.9,2,2S14.1,14,13,14z"/></svg>