<svg viewBox="0 0 512 412" xmlns="http://www.w3.org/2000/svg"><path d="m460.898438 204.898438c0 113.164062-91.734376 204.902343-204.898438 204.902343s-204.898438-91.738281-204.898438-204.902343c0-113.160157 91.734376-204.898438 204.898438-204.898438s204.898438 91.738281 204.898438 204.898438zm0 0" fill="#2385ec"/><path d="m429.300781 204.898438c0 95.710937-77.589843 173.300781-173.300781 173.300781s-173.300781-77.589844-173.300781-173.300781c0-95.710938 77.589843-173.296876 173.300781-173.296876s173.300781 77.585938 173.300781 173.296876zm0 0" fill="#125699"/><path d="m400.300781 204.898438c0 79.703124-64.601562 144.300781-144.300781 144.300781-3.699219 0-7.300781-.097657-10.898438-.398438-74.601562-5.5-133.402343-67.800781-133.402343-143.902343 0-76 58.800781-138.296876 133.402343-143.898438 3.597657-.300781 7.199219-.398438 10.898438-.398438 79.699219 0 144.300781 64.597657 144.300781 144.296876zm0 0" fill="#fff"/><path d="m378.5 204.898438c0 76-58.800781 138.300781-133.398438 143.902343-74.601562-5.5-133.402343-67.800781-133.402343-143.902343 0-76 58.800781-138.296876 133.402343-143.898438 74.597657 5.601562 133.398438 67.898438 133.398438 143.898438zm0 0" fill="#d8ebf7"/><path d="m280.199219 204.898438c0 13.367187-10.832031 24.203124-24.199219 24.203124s-24.199219-10.835937-24.199219-24.203124c0-13.363282 10.832031-24.199219 24.199219-24.199219s24.199219 10.835937 24.199219 24.199219zm0 0" fill="#fc5b5b"/><g fill="#272f38"><path d="m160.101562 211.398438h-25.101562c-3.601562 0-6.5-2.898438-6.5-6.5 0-3.597657 2.898438-6.5 6.5-6.5h25.199219c3.601562 0 6.5 2.902343 6.5 6.5 0 3.601562-3 6.5-6.597657 6.5zm0 0"/><path d="m377 211.398438h-25.199219c-3.601562 0-6.5-2.898438-6.5-6.5 0-3.597657 2.898438-6.5 6.5-6.5h25.199219c3.601562 0 6.5 2.902343 6.5 6.5 0 3.601562-2.898438 6.5-6.5 6.5zm0 0"/><path d="m151.199219 271.898438c-2.199219 0-4.398438-1.199219-5.597657-3.296876-1.800781-3.101562-.703124-7.101562 2.398438-8.902343l21.800781-12.597657c3.097657-1.800781 7.097657-.703124 8.898438 2.398438s.699219 7.101562-2.398438 8.898438l-21.902343 12.601562c-1 .601562-2.097657.898438-3.199219.898438zm0 0"/><path d="m339 163.5c-2.199219 0-4.398438-1.199219-5.601562-3.300781-1.796876-3.097657-.699219-7.097657 2.402343-8.898438l21.800781-12.601562c3.097657-1.800781 7.097657-.699219 8.898438 2.402343 1.800781 3.097657.699219 7.097657-2.398438 8.898438l-21.800781 12.601562c-1.101562.597657-2.199219.898438-3.300781.898438zm0 0"/><path d="m195.5 316.199219c-1.101562 0-2.199219-.300781-3.199219-.898438-3.101562-1.800781-4.199219-5.800781-2.402343-8.902343l12.601562-21.796876c1.800781-3.101562 5.800781-4.203124 8.898438-2.402343 3.101562 1.800781 4.203124 5.800781 2.402343 8.902343l-12.601562 21.796876c-1.300781 2.101562-3.5 3.300781-5.699219 3.300781zm0 0"/><path d="m303.898438 128.398438c-1.097657 0-2.199219-.296876-3.199219-.898438-3.097657-1.800781-4.199219-5.800781-2.398438-8.898438l12.597657-21.800781c1.800781-3.101562 5.800781-4.199219 8.902343-2.402343 3.097657 1.800781 4.199219 5.800781 2.398438 8.902343l-12.597657 21.800781c-1.300781 2.097657-3.402343 3.296876-5.703124 3.296876zm0 0"/><path d="m256 115.5c-3.601562 0-6.5-2.898438-6.5-6.5v-25.101562c0-3.597657 2.898438-6.5 6.5-6.5s6.5 2.902343 6.5 6.5v25.101562c0 3.601562-2.898438 6.5-6.5 6.5zm0 0"/><path d="m316.5 316.199219c-2.199219 0-4.398438-1.199219-5.601562-3.300781l-12.597657-21.796876c-1.800781-3.101562-.699219-7.101562 2.398438-8.902343 3.101562-1.800781 7.101562-.699219 8.902343 2.402343l12.597657 21.796876c1.800781 3.101562.699219 7.101562-2.398438 8.902343-1.101562.597657-2.199219.898438-3.300781.898438zm0 0"/><path d="m208.101562 128.398438c-2.203124 0-4.402343-1.199219-5.601562-3.296876l-12.601562-21.800781c-1.796876-3.101562-.699219-7.101562 2.402343-8.902343 3.097657-1.796876 7.097657-.699219 8.898438 2.402343l12.601562 21.800781c1.800781 3.097657.699219 7.097657-2.402343 8.898438-1.097657.601562-2.199219.898438-3.296876.898438zm0 0"/><path d="m360.800781 271.898438c-1.101562 0-2.199219-.296876-3.199219-.898438l-21.800781-12.601562c-3.101562-1.796876-4.199219-5.796876-2.402343-8.898438 1.800781-3.101562 5.800781-4.199219 8.902343-2.398438l21.800781 12.597657c3.097657 1.800781 4.199219 5.800781 2.398438 8.902343-1.300781 2.097657-3.5 3.296876-5.699219 3.296876zm0 0"/><path d="m173 163.5c-1.101562 0-2.199219-.300781-3.199219-.898438l-21.902343-12.601562c-3.097657-1.800781-4.199219-5.800781-2.398438-8.898438 1.800781-3.101562 5.800781-4.203124 8.898438-2.402343l21.800781 12.601562c3.101562 1.800781 4.199219 5.800781 2.402343 8.898438-1.203124 2.101562-3.402343 3.300781-5.601562 3.300781zm0 0"/></g><path d="m200.199219 108.199219 37.800781 98 28.101562-16.300781zm0 0" fill="#fc5b5b"/><path d="m338.699219 113.398438 91.300781-59.5-31.800781-31.796876zm0 0" fill="#fc5b5b"/><path d="m270.699219 204.898438c0 8.121093-6.582031 14.703124-14.699219 14.703124s-14.699219-6.582031-14.699219-14.703124c0-8.117188 6.582031-14.699219 14.699219-14.699219s14.699219 6.582031 14.699219 14.699219zm0 0" fill="#272f38"/></svg>