<svg xmlns="http://www.w3.org/2000/svg" xmlns:xlink="http://www.w3.org/1999/xlink" viewBox="0 0 12 24" version="1.1" ><g><g fill="#000000"><path d="M10,4.0346 C10,1.80309487 8.22523627,-0.0004 6,-0.0004 C3.77476373,-0.0004 2,1.80309487 2,4.0346 L2,13.7228712 C0.749950015,14.8526634 0,16.3550485 0,17.9996 C0,21.2671536 2.78464684,23.9996 6.069,23.9996 C9.33601156,23.9996 12,21.2844887 12,17.9996 C12,16.3550485 11.25005,14.8526634 10,13.7228712 L10,4.0346 Z M8,14.1876 C8,14.4950129 8.14139288,14.7853428 8.38341561,14.9748888 C9.40463781,15.7746838 10,16.8503927 10,17.9996 C10,20.188339 8.22284331,21.9996 6.069,21.9996 C3.88083364,21.9996 2,20.1540241 2,17.9996 C2,16.8503927 2.59536219,15.7746838 3.61658439,14.9748888 C3.85860712,14.7853428 4,14.4950129 4,14.1876 L4,4.0346 C4,2.90053899 4.88658629,1.9996 6,1.9996 C7.11341371,1.9996 8,2.90053899 8,4.0346 L8,14.1876 Z"/><path fill="#e63946" d="M7,15.1837 L7,7.9997 C7,7.5057 6.735,6.9997 6,6.9997 C5.265,6.9997 5,7.4117 5,7.9997 L5,15.1837 C3.837,15.5967 3,16.6957 3,17.9997 C3,19.6567 4.343,20.9997 6,20.9997 C7.657,20.9997 9,19.6567 9,17.9997 C9,16.6957 8.163,15.5967 7,15.1837"/></g></g></svg>